G04*
G04 #@! TF.GenerationSoftware,Altium Limited,Altium Designer,21.2.2 (38)*
G04*
G04 Layer_Physical_Order=2*
G04 Layer_Color=32768*
%FSLAX25Y25*%
%MOIN*%
G70*
G04*
G04 #@! TF.SameCoordinates,7CE423D0-DD0A-4659-BC9C-6402AB630EF7*
G04*
G04*
G04 #@! TF.FilePolarity,Negative*
G04*
G01*
G75*
%ADD73C,0.04000*%
%ADD80C,0.07000*%
%ADD87C,0.13850*%
%ADD88C,0.04500*%
%ADD89C,0.04000*%
%ADD90C,0.03800*%
%ADD91C,0.02500*%
%ADD92C,0.01800*%
D73*
X0Y0D02*
Y444100D01*
X584400D01*
X584400Y0D01*
X0D02*
X584400D01*
D80*
X515890Y241731D02*
D03*
X486890D02*
D03*
X501890D02*
D03*
X529390D02*
D03*
X486890Y331731D02*
D03*
X501890D02*
D03*
X515890D02*
D03*
X529390D02*
D03*
X486890Y422831D02*
D03*
X501890D02*
D03*
X515890D02*
D03*
X529390D02*
D03*
X486890Y151731D02*
D03*
X515890D02*
D03*
X501890D02*
D03*
X529390D02*
D03*
X211731Y22075D02*
D03*
Y49575D02*
D03*
Y35575D02*
D03*
Y64575D02*
D03*
X104031Y22075D02*
D03*
Y49575D02*
D03*
Y35575D02*
D03*
Y64575D02*
D03*
X321760Y64575D02*
D03*
Y35575D02*
D03*
Y49575D02*
D03*
Y22075D02*
D03*
D87*
X565600Y19300D02*
D03*
Y426900D02*
D03*
X17100Y19300D02*
D03*
Y426900D02*
D03*
D88*
X272428Y123575D02*
D03*
Y143175D02*
D03*
X162400Y123575D02*
D03*
Y143175D02*
D03*
X427890Y102400D02*
D03*
X408290D02*
D03*
X427890Y192400D02*
D03*
X408290D02*
D03*
X427890Y282400D02*
D03*
X408290D02*
D03*
X427890Y372400D02*
D03*
X408290D02*
D03*
X54700Y123575D02*
D03*
Y143175D02*
D03*
D89*
X186900Y226700D02*
D03*
X193900D02*
D03*
X200900D02*
D03*
X207900D02*
D03*
X214900D02*
D03*
X221900D02*
D03*
X228900D02*
D03*
X186900Y219700D02*
D03*
X193900D02*
D03*
X200900D02*
D03*
X207900D02*
D03*
X214900D02*
D03*
X221900D02*
D03*
X228900D02*
D03*
X372200Y375000D02*
D03*
X358200D02*
D03*
X372200Y389000D02*
D03*
X358200D02*
D03*
Y361000D02*
D03*
X372200D02*
D03*
X358200Y403000D02*
D03*
X79900Y186500D02*
D03*
X93900D02*
D03*
X107900D02*
D03*
X93700Y193500D02*
D03*
X79700D02*
D03*
X107700D02*
D03*
X186400Y195700D02*
D03*
X214400D02*
D03*
X200400D02*
D03*
X214400Y181700D02*
D03*
X228400D02*
D03*
Y195700D02*
D03*
X221400Y181700D02*
D03*
X207400Y195700D02*
D03*
X221400D02*
D03*
X193400D02*
D03*
X288100Y176300D02*
D03*
X260100D02*
D03*
X274100D02*
D03*
X246100D02*
D03*
X288100Y190300D02*
D03*
X246100D02*
D03*
X274100D02*
D03*
X260100D02*
D03*
X267100D02*
D03*
X281100D02*
D03*
X253100D02*
D03*
X295100D02*
D03*
X253100Y176300D02*
D03*
X281100D02*
D03*
X267100D02*
D03*
X193400Y188700D02*
D03*
X221400D02*
D03*
X207400D02*
D03*
X221400Y174700D02*
D03*
X267100Y169300D02*
D03*
X281100D02*
D03*
X253100D02*
D03*
X295100Y183300D02*
D03*
X253100D02*
D03*
X281100D02*
D03*
X267100D02*
D03*
X365200Y403000D02*
D03*
X228400Y188700D02*
D03*
Y174700D02*
D03*
X214400D02*
D03*
X200400Y188700D02*
D03*
X214400D02*
D03*
X186400D02*
D03*
X379200Y361000D02*
D03*
X365200D02*
D03*
Y389000D02*
D03*
X379200D02*
D03*
X365200Y375000D02*
D03*
X379200D02*
D03*
X260100Y183300D02*
D03*
X274100D02*
D03*
X246100D02*
D03*
X288100D02*
D03*
X246100Y169300D02*
D03*
X274100D02*
D03*
X260100D02*
D03*
X288100D02*
D03*
D90*
X61211Y300811D02*
D03*
X69860Y409900D02*
D03*
X11600Y256200D02*
D03*
X20488Y300500D02*
D03*
X19872Y330400D02*
D03*
X68600Y338600D02*
D03*
X61014Y331000D02*
D03*
X66300Y208647D02*
D03*
Y198647D02*
D03*
Y248647D02*
D03*
Y218647D02*
D03*
Y238647D02*
D03*
Y228647D02*
D03*
D91*
X224200Y318600D02*
D03*
X228200D02*
D03*
X478400Y60800D02*
D03*
X483400D02*
D03*
X488400D02*
D03*
X493400D02*
D03*
X498400D02*
D03*
X503400D02*
D03*
X508400D02*
D03*
X513400D02*
D03*
X518400D02*
D03*
X478400Y55800D02*
D03*
X483400D02*
D03*
X488400D02*
D03*
X493400D02*
D03*
X498400D02*
D03*
X503400D02*
D03*
X508400D02*
D03*
X513400D02*
D03*
X518400D02*
D03*
X478400Y50800D02*
D03*
X483400D02*
D03*
X488400D02*
D03*
X493400D02*
D03*
X498400D02*
D03*
X503400D02*
D03*
X508400D02*
D03*
X513400D02*
D03*
X518400D02*
D03*
X478400Y45800D02*
D03*
X483400D02*
D03*
X488400D02*
D03*
X493400D02*
D03*
X498400D02*
D03*
X503400D02*
D03*
X508400D02*
D03*
X513400D02*
D03*
X518400D02*
D03*
X478400Y40800D02*
D03*
X483400D02*
D03*
X488400D02*
D03*
X493400D02*
D03*
X498400D02*
D03*
X503400D02*
D03*
X508400D02*
D03*
X513400D02*
D03*
X518400D02*
D03*
X478400Y35800D02*
D03*
X483400D02*
D03*
X488400D02*
D03*
X493400D02*
D03*
X498400D02*
D03*
X503400D02*
D03*
X508400D02*
D03*
X513400D02*
D03*
X518400D02*
D03*
X478400Y30800D02*
D03*
X483400D02*
D03*
X488400D02*
D03*
X493400D02*
D03*
X498400D02*
D03*
X503400D02*
D03*
X508400D02*
D03*
X513400D02*
D03*
X518400D02*
D03*
X478400Y25800D02*
D03*
X483400D02*
D03*
X488400D02*
D03*
X493400D02*
D03*
X498400D02*
D03*
X503400D02*
D03*
X508400D02*
D03*
X513400D02*
D03*
X518400D02*
D03*
X478400Y20800D02*
D03*
X483400D02*
D03*
X488400D02*
D03*
X493400D02*
D03*
X498400D02*
D03*
X503400D02*
D03*
X508400D02*
D03*
X513400D02*
D03*
X518400D02*
D03*
X325700Y341300D02*
D03*
X321700D02*
D03*
X317700D02*
D03*
X325700Y337300D02*
D03*
X321700D02*
D03*
X313700D02*
D03*
X309700D02*
D03*
X317700D02*
D03*
X309700Y341300D02*
D03*
X313700D02*
D03*
X220200Y318600D02*
D03*
X216200D02*
D03*
X209400Y293500D02*
D03*
X217400D02*
D03*
X213400D02*
D03*
X205400D02*
D03*
X225400D02*
D03*
X221400D02*
D03*
D92*
X275973Y307754D02*
D03*
X280086Y303104D02*
D03*
X278102Y305504D02*
D03*
X275973Y310537D02*
D03*
X268844Y316731D02*
D03*
X261501Y319881D02*
D03*
X259129Y317504D02*
D03*
X274086Y301309D02*
D03*
X243285Y303604D02*
D03*
X246954Y316731D02*
D03*
X272804Y310614D02*
D03*
X270032Y311937D02*
D03*
X268610Y321393D02*
D03*
X248701Y298131D02*
D03*
X252770Y298031D02*
D03*
M02*
