G04*
G04 #@! TF.GenerationSoftware,Altium Limited,Altium Designer,21.2.2 (38)*
G04*
G04 Layer_Color=128*
%FSLAX25Y25*%
%MOIN*%
G70*
G04*
G04 #@! TF.SameCoordinates,7CE423D0-DD0A-4659-BC9C-6402AB630EF7*
G04*
G04*
G04 #@! TF.FilePolarity,Positive*
G04*
G01*
G75*
%ADD18R,0.01968X0.02362*%
G04:AMPARAMS|DCode=19|XSize=19.68mil|YSize=23.62mil|CornerRadius=0mil|HoleSize=0mil|Usage=FLASHONLY|Rotation=45.000|XOffset=0mil|YOffset=0mil|HoleType=Round|Shape=Rectangle|*
%AMROTATEDRECTD19*
4,1,4,0.00139,-0.01531,-0.01531,0.00139,-0.00139,0.01531,0.01531,-0.00139,0.00139,-0.01531,0.0*
%
%ADD19ROTATEDRECTD19*%

%ADD94R,0.02362X0.01968*%
D18*
X223258Y312987D02*
D03*
Y308987D02*
D03*
X228258D02*
D03*
Y312987D02*
D03*
X289100Y318468D02*
D03*
Y322468D02*
D03*
X233258Y308987D02*
D03*
Y312987D02*
D03*
X284100Y318468D02*
D03*
Y322468D02*
D03*
X238258Y308987D02*
D03*
Y312987D02*
D03*
X279100Y318468D02*
D03*
Y322468D02*
D03*
X243258Y308987D02*
D03*
Y312987D02*
D03*
X294100Y318468D02*
D03*
Y322468D02*
D03*
X299100D02*
D03*
Y318468D02*
D03*
D19*
X283639Y341953D02*
D03*
X286467Y339125D02*
D03*
X282717Y335375D02*
D03*
X279889Y338203D02*
D03*
X278967Y331625D02*
D03*
X276138Y334453D02*
D03*
X275217Y327875D02*
D03*
X272389Y330703D02*
D03*
X271467Y324125D02*
D03*
X268638Y326953D02*
D03*
D94*
X252668Y273800D02*
D03*
X256668D02*
D03*
X254200Y342500D02*
D03*
X258200D02*
D03*
X274168Y277200D02*
D03*
X278169D02*
D03*
X256668Y278800D02*
D03*
X252668D02*
D03*
X258200Y337500D02*
D03*
X254200D02*
D03*
X278169Y282200D02*
D03*
X274168D02*
D03*
X256668Y283800D02*
D03*
X252668D02*
D03*
X258200Y332500D02*
D03*
X254200D02*
D03*
X278169Y287200D02*
D03*
X274168D02*
D03*
X256668Y288800D02*
D03*
X252668D02*
D03*
X258200Y327500D02*
D03*
X254200D02*
D03*
X278169Y292200D02*
D03*
X274168D02*
D03*
X256668Y293800D02*
D03*
X252668D02*
D03*
X258200Y322500D02*
D03*
X254200D02*
D03*
X278169Y297200D02*
D03*
X274168D02*
D03*
X239400Y299700D02*
D03*
X243400D02*
D03*
Y294700D02*
D03*
X239400D02*
D03*
Y289700D02*
D03*
X243400D02*
D03*
Y284700D02*
D03*
X239400D02*
D03*
Y279700D02*
D03*
X243400D02*
D03*
M02*
