G04*
G04 #@! TF.GenerationSoftware,Altium Limited,Altium Designer,21.2.2 (38)*
G04*
G04 Layer_Color=16711935*
%FSLAX25Y25*%
%MOIN*%
G70*
G04*
G04 #@! TF.SameCoordinates,52539C7D-95C9-4EB3-8E82-0DEE1B6B5610*
G04*
G04*
G04 #@! TF.FilePolarity,Negative*
G04*
G01*
G75*
%ADD46R,0.02769X0.03162*%
G04:AMPARAMS|DCode=47|XSize=27.69mil|YSize=31.62mil|CornerRadius=0mil|HoleSize=0mil|Usage=FLASHONLY|Rotation=45.000|XOffset=0mil|YOffset=0mil|HoleType=Round|Shape=Rectangle|*
%AMROTATEDRECTD47*
4,1,4,0.00139,-0.02097,-0.02097,0.00139,-0.00139,0.02097,0.02097,-0.00139,0.00139,-0.02097,0.0*
%
%ADD47ROTATEDRECTD47*%

%ADD59C,0.13635*%
%ADD60C,0.09800*%
%ADD61C,0.07800*%
%ADD62R,0.07800X0.07800*%
%ADD63R,0.07800X0.07800*%
%ADD96R,0.03162X0.02769*%
D46*
X223258Y312987D02*
D03*
Y308987D02*
D03*
X228258D02*
D03*
Y312987D02*
D03*
X289100Y318468D02*
D03*
Y322468D02*
D03*
X233258Y308987D02*
D03*
Y312987D02*
D03*
X284100Y318468D02*
D03*
Y322468D02*
D03*
X238258Y308987D02*
D03*
Y312987D02*
D03*
X279100Y318468D02*
D03*
Y322468D02*
D03*
X243258Y308987D02*
D03*
Y312987D02*
D03*
X294100Y318468D02*
D03*
Y322468D02*
D03*
X299100D02*
D03*
Y318468D02*
D03*
D47*
X283639Y341953D02*
D03*
X286467Y339125D02*
D03*
X282717Y335375D02*
D03*
X279889Y338203D02*
D03*
X278967Y331625D02*
D03*
X276138Y334453D02*
D03*
X275217Y327875D02*
D03*
X272389Y330703D02*
D03*
X271467Y324125D02*
D03*
X268638Y326953D02*
D03*
D59*
X565600Y19300D02*
D03*
Y426900D02*
D03*
X17100Y19300D02*
D03*
Y426900D02*
D03*
D60*
X320100Y393200D02*
D03*
Y365200D02*
D03*
X276100Y393200D02*
D03*
Y365200D02*
D03*
X303801Y262000D02*
D03*
Y234000D02*
D03*
X259801Y262000D02*
D03*
Y234000D02*
D03*
X186850Y338000D02*
D03*
Y366000D02*
D03*
X230850Y338000D02*
D03*
Y366000D02*
D03*
X161000Y303700D02*
D03*
X189000D02*
D03*
X161000Y259700D02*
D03*
X189000D02*
D03*
D61*
X272428Y123575D02*
D03*
X262628Y133375D02*
D03*
X162400Y123575D02*
D03*
X152600Y133375D02*
D03*
X427890Y102400D02*
D03*
X418090Y92600D02*
D03*
X427890Y192400D02*
D03*
X418090Y182600D02*
D03*
X427890Y282400D02*
D03*
X418090Y272600D02*
D03*
X427890Y372400D02*
D03*
X418090Y362600D02*
D03*
X54700Y123575D02*
D03*
X44900Y133375D02*
D03*
D62*
X272428Y143175D02*
D03*
X162400Y143175D02*
D03*
X54700D02*
D03*
D63*
X408290Y102400D02*
D03*
Y192400D02*
D03*
X408290Y282400D02*
D03*
Y372400D02*
D03*
D96*
X252668Y273800D02*
D03*
X256668D02*
D03*
X254200Y342500D02*
D03*
X258200D02*
D03*
X274168Y277200D02*
D03*
X278169D02*
D03*
X256668Y278800D02*
D03*
X252668D02*
D03*
X258200Y337500D02*
D03*
X254200D02*
D03*
X278169Y282200D02*
D03*
X274168D02*
D03*
X256668Y283800D02*
D03*
X252668D02*
D03*
X258200Y332500D02*
D03*
X254200D02*
D03*
X278169Y287200D02*
D03*
X274168D02*
D03*
X256668Y288800D02*
D03*
X252668D02*
D03*
X258200Y327500D02*
D03*
X254200D02*
D03*
X278169Y292200D02*
D03*
X274168D02*
D03*
X256668Y293800D02*
D03*
X252668D02*
D03*
X258200Y322500D02*
D03*
X254200D02*
D03*
X278169Y297200D02*
D03*
X274168D02*
D03*
X239400Y299700D02*
D03*
X243400D02*
D03*
Y294700D02*
D03*
X239400D02*
D03*
Y289700D02*
D03*
X243400D02*
D03*
Y284700D02*
D03*
X239400D02*
D03*
Y279700D02*
D03*
X243400D02*
D03*
M02*
