M48
;Layer_Color=9474304
;FILE_FORMAT=2:5
INCH,TZ
;TYPE=PLATED
T1F00S00C0.00800
T2F00S00C0.00800
T3F00S00C0.00800
T4F00S00C0.01500
T5F00S00C0.02800
T6F00S00C0.03000
T7F00S00C0.03500
T8F00S00C0.06000
T9F00S00C0.06300
;TYPE=NON_PLATED
T10F00S00C0.12850
%
T01
X293801Y230000
X297801
Y234000
X293801
Y238000
X297801
X305801Y242000
X309801
Y246000
Y250000
Y254000
X305801
X313801
Y258000
Y262000
Y266000
X309801
Y262000
Y258000
X313801Y250000
Y246000
Y242000
Y238000
Y234000
Y230000
X309801
Y234000
Y238000
X297801Y258000
Y262000
Y266000
X293801
Y262000
Y258000
X269801
X265801
Y262000
X269801
Y266000
X265801
X253801
Y262000
Y258000
X249801
Y254000
Y250000
Y246000
Y242000
X253801
Y238000
Y234000
X249801
Y238000
Y230000
X253801
X265801
Y234000
Y238000
X269801
Y234000
Y230000
X257801Y242000
X253801Y246000
Y250000
Y254000
X257801
X249801Y262000
Y266000
X193000Y265700
X189000
X185000
Y269700
X189000
X193000
Y253700
X189000
X185000
X181000
Y249700
X177000
X173000
X169000
X165000
Y253700
X169000
X173000
X177000
X181000Y257700
X169000
X165000Y265700
Y269700
X161000
Y265700
X157000
Y269700
Y253700
X161000
Y249700
X157000
X185000
X189000
X193000
Y293700
Y297700
X189000
Y293700
X185000
Y297700
X181000Y305700
Y309700
X177000
X173000
X169000
Y305700
Y313700
X165000
X161000
X157000
Y309700
X161000
X165000
X173000Y313700
X177000
X181000
X185000
X189000
X193000
Y309700
X189000
X185000
X180850Y334000
X176850
Y338000
Y342000
Y346000
X180850
X184850
X180850Y350000
Y354000
Y358000
X184850
X176850
Y354000
Y350000
X180850Y342000
Y338000
X192850
Y334000
X196850
Y338000
Y342000
X192850
Y362000
Y366000
Y370000
X196850
Y366000
Y362000
X180850
Y366000
Y370000
X176850
Y366000
Y362000
X220850
X224850
Y366000
X220850
Y370000
X224850
X236850
Y366000
Y362000
Y358000
X240850
Y354000
Y350000
Y346000
Y342000
X236850
Y346000
Y350000
Y354000
X232850Y358000
Y346000
X224850Y342000
X220850
Y338000
X224850
Y334000
X220850
X236850
Y338000
X240850
Y334000
Y362000
Y366000
Y370000
X266100Y369200
X270100
Y373200
X266100
Y377200
Y381200
Y385200
Y389200
X270100
Y385200
Y381200
Y377200
X274100Y373200
X282100Y369200
Y365200
Y361200
X270100
Y365200
X266100
Y361200
X274100Y385200
X282100Y389200
Y393200
Y397200
X270100
Y393200
X266100
Y397200
X165000Y297700
X161000
X157000
Y293700
X161000
X165000
X286100Y361200
Y365200
Y369200
Y389200
Y393200
Y397200
X310100
X314100
Y393200
X310100
Y389200
X314100
X322100Y385200
X326100
Y381200
Y377200
Y373200
X322100
X330100
Y377200
Y381200
Y385200
Y389200
Y393200
Y397200
X326100
Y393200
Y389200
Y369200
Y365200
Y361200
X330100
Y365200
Y369200
X314100
Y365200
Y361200
X310100
Y365200
Y369200
T02
X10200Y34600
X17700
X25200
X32700
X40200
X47700
X55200
X62700
X70200
X77700
X85200
X92700
X96450Y42100
X88950
X81450
X85200Y49600
X92700
X96450Y57100
X88950
X81450
X73950Y72100
X66450
X58950
X51450
X43950
X36450
X28950
X21450
X13950
X6450
X10200Y79600
X17700
X25200
X32700
X40200
X36450Y87100
X28950
X21450
X13950
X6450
X10200Y94600
X17700
X25200
X32700
X40200
X36450Y102100
X28950
X21450
X13950
X6450
X10200Y109600
X17700
X25200
X32700
X40200
X36450Y117100
X28950
X21450
X13950
X6450
X10200Y124600
X17700
X25200
X32700
X40200
Y64600
X47700
X51450Y57100
X43950
X36450
X28950
X21450
X13950
X6450
X10200Y64600
X17700
X25200
X32700
Y49600
X40200
X47700
X51450Y42100
X43950
X36450
X28950
X21450
X13950
X6450
X10200Y49600
X17700
X25200
X36450Y27100
X43950
X51450
X58950
X66450
X73950
X81450
X88950
X96450
X92700Y19600
X85200
X77700
X70200
X62700
X55200
X47700
X40200
X32700
X36450Y12100
X43950
X51450
X58950
X66450
X73950
X81450
X88950
X96450
X103950
X111450
X118950
X126450
X122700Y19600
X115200
X118950Y27100
X126450
X122700Y34600
X115200
X118950Y42100
X126450
X122700Y49600
X115200
X118950Y57100
X126450
Y72100
X118950
X111450
X115200Y79600
X122700
X107700
X100200
X92700
X85200
X88950Y87100
X96450
X103950
Y102100
X96450
X88950
X96450Y72100
X111450Y57100
Y42100
Y27100
X115200Y124600
X122700
X126450Y117100
X107700Y124600
X130200
X137700
X145200
X141450Y117100
X133950
X137700Y109600
X145200
X141450Y102100
X133950
X137700Y94600
X145200
X141450Y87100
X133950
X137700Y79600
X145200
X148950Y72100
X156450
X163950
X171450
X178950
X175200Y79600
X197700
X205200
X212700
X220200
X227700
X235200
X242700
X250200
X257700
X261450Y72100
X268950
X276450
X265200Y64600
X257700
X250200
X242700
X246450Y72100
X253950
Y87100
X246450
X238950
X242700Y94600
X250200
X257700
X253950Y102100
X246450
X238950
X242700Y109600
X250200
X257700
X253950Y117100
X246450
X238950
X242700Y124600
X250200
X257700
X235200
X227700
X220200
X212700
X208950Y102100
X201450
X193950
Y87100
X201450
X208950
X216450Y72100
X223950
X231450
X238950
Y57100
X246450
X253950
X261450
X268950
X265200Y49600
X257700
X250200
X242700
X235200
X227700
X220200
X223950Y57100
X231450
Y42100
X238950
X246450
X253950
X261450
X268950
X272700Y34600
X280200
X276450Y27100
X268950
X261450
X253950
X246450
X238950
X231450
X223950
X227700Y34600
X235200
X242700
X250200
X257700
X265200
Y19600
X272700
X280200
X276450Y12100
X268950
X261450
X253950
X246450
X238950
X231450
X223950
X216450
X208950
X201450
X193950
X186450
X178950
X171450
X163950
X156450
X148950
X141450
X133950
X137700Y19600
X145200
X152700
X160200
X167700
X175200
X182700
X190200
X197700
X201450Y27100
X193950
X186450
X178950
X171450
X163950
X156450
X148950
X141450
X133950
X137700Y34600
X145200
X152700
X160200
X167700
X175200
X182700
X190200
X197700
X201450Y42100
X193950
X197700Y49600
X190200
X193950Y57100
X201450
Y72100
X190200Y64600
X160200
X152700
X145200
X137700
X130200
X133950Y72100
X141450
Y57100
X148950
X156450
X160200Y49600
X152700
X145200
X137700
X130200
X133950Y57100
Y42100
X141450
X148950
X156450
X130200Y34600
Y19600
Y79600
Y94600
Y109600
X235200
X223950Y42100
X220200Y34600
Y19600
X227700
X235200
X242700
X250200
X257700
X287700
X295200
X302700
X310200
X313950Y27100
X306450
X298950
X291450
X283950
X287700Y34600
X295200
X302700
X310200
X313950Y42100
X306450
X298950
X302700Y49600
X310200
X313950Y57100
X306450
X298950
X291450Y72100
X283950
X302700Y79600
X310200
X317700
X325200
X332700
X340200
X347700
X355200
X362700
X370200
X377700
X385200
X392700
X400200
X407700
X415200
X422700
X430200
X437700
X433950Y87100
X426450
X418950
X411450
X403950
X396450
X388950
X381450
X373950
X366450
X358950
X351450
X355200Y94600
X362700
X370200
X377700
X385200
X392700
X400200
X407700
X411450Y72100
X418950
X426450
X433950
X403950
X396450
X388950
X381450
X373950
X366450
X358950
X351450
X343950
X336450
X328950
Y57100
X336450
X343950
X351450
X358950
X366450
X373950
X381450
X385200Y64600
X377700
X370200
X362700
X355200
X347700
Y49600
X355200
X362700
X370200
X377700
X385200
X381450Y42100
X373950
X366450
X358950
X351450
X343950
X336450
X328950
X332700Y49600
X340200
Y34600
X347700
X355200
X362700
X370200
X377700
X385200
X381450Y27100
X373950
X366450
X358950
X351450
X343950
X336450
X328950
X332700Y34600
Y19600
X340200
X347700
X355200
X362700
X370200
X377700
X385200
X388950Y12100
X396450
X403950
X411450
X418950
X426450
X433950
X381450
X373950
X366450
X358950
X351450
X343950
X336450
X328950
X321450
X313950
X306450
X298950
X291450
X283950
X313950Y72100
Y87100
X321450
Y102100
X313950
X306450
Y87100
X347700Y94600
X351450Y102100
X358950
X366450
X373950
X381450
X385200Y109600
X377700
X370200
X362700
X355200
X347700
X351450Y117100
X358950
X366450
X373950
X381450
X343950
X441450Y87100
X448950
X456450
X463950
X471450
X478950
X486450
X493950
X501450
X508950
X516450
X523950
X531450
X538950
X546450
X553950
X561450
X568950
X576450
X572700Y94600
X565200
X557700
X550200
X542700
X535200
X527700
X520200
X512700
X505200
X497700
X490200
X482700
X475200
X478950Y102100
X486450
X493950
X501450
X508950
X516450
X523950
X531450
X538950
X546450
X553950
X561450
X568950
X576450
X572700Y109600
X565200
X568950Y117100
X576450
X572700Y124600
X565200
X557700
X561450Y117100
X565200Y79600
X572700
X576450Y72100
X568950
X561450
X553950
X546450
X538950
X531450
X523950
X516450
X508950
X501450
X493950
X486450
X478950
X471450
X463950
X456450
X448950
X441450
X445200Y79600
X452700
X460200
X467700
X475200
X482700
X490200
X497700
X505200
X512700
X520200
X527700
X535200
X542700
X550200
X557700
Y64600
X565200
X572700
X576450Y57100
X568950
X561450
X553950
X546450
X538950
X531450
X535200Y64600
X542700
X550200
Y49600
X557700
X565200
X572700
X576450Y42100
X568950
X561450
X553950
X546450
X538950
X531450
X535200Y49600
X542700
Y34600
X550200
X557700
X565200
X572700
X546450Y27100
X538950
X531450
X535200Y34600
X527700
Y49600
Y64600
Y19600
X535200
X542700
X550200
X546450Y12100
X538950
X531450
X523950
X516450
X508950
X501450
X493950
X486450
X478950
X471450
X463950
X456450
X448950
X441450
X445200Y19600
X452700
X460200
X467700
X463950Y27100
X456450
X448950
X441450
X445200Y34600
X452700
X460200
X467700
X463950Y42100
X456450
X448950
X441450
X445200Y49600
X452700
X460200
X467700
X463950Y57100
X456450
X448950
X441450
X445200Y64600
X452700
X460200
X467700
X475200Y109600
X478950Y117100
X516450
X520200Y124600
X527700
X512700
Y109600
X516450Y132100
X523950
X531450
X527700Y139600
X520200
X512700
X505200
X497700
X501450Y132100
X508950
X493950
X471450
X475200Y139600
X467700
X471450Y147100
X478950
X475200Y154600
X467700
X463950Y147100
X448950
X445200Y154600
X448950Y162100
X456450
X460200Y169600
X467700
X475200
X482700
X490200
X497700
X505200
X512700
X520200
X527700
X535200
X542700
X550200
X557700
X565200
X572700
X576450Y177100
X568950
X561450
X553950
X546450
X538950
X531450
X523950
X516450
X508950
X501450
X493950
X486450
X478950
X471450
X463950
X456450
X448950
X441450
X445200Y169600
X452700
X441450Y162100
X475200Y184600
X482700
X490200
X497700
X505200
X512700
X520200
X527700
X535200
X542700
X550200
X557700
X565200
X572700
X576450Y192100
X568950
X561450
X553950
X546450
X538950
X531450
X523950
X516450
X508950
X501450
X493950
X486450
X478950
X475200Y199600
X478950Y207100
X471450Y222100
X475200Y229600
X467700
X471450Y237100
X478950
X475200Y244600
X467700
X463950Y237100
X448950
X445200Y244600
X448950Y252100
X456450
X460200Y259600
X467700
X475200
X482700
X490200
X497700
X505200
X512700
X520200
X527700
X535200
X542700
X550200
X557700
X565200
X572700
X576450Y267100
X568950
X561450
X553950
X546450
X538950
X531450
X523950
X516450
X508950
X501450
X493950
X486450
X478950
X471450
X463950
X456450
X448950
X441450
X445200Y259600
X452700
X441450Y252100
X475200Y274600
X482700
X490200
X497700
X505200
X512700
X520200
X527700
X535200
X542700
X550200
X557700
X565200
X572700
X576450Y282100
X568950
X561450
X553950
X546450
X538950
X531450
X523950
X516450
X508950
X501450
X493950
X486450
X478950
X497700Y229600
X505200
X512700
X520200
X527700
X531450Y222100
X523950
X516450
X508950
X501450
X493950
X512700Y214600
X520200
X527700
X516450Y207100
X512700Y199600
X565200
X572700
X576450Y207100
X568950
X561450
X565200Y214600
X572700
X576450Y222100
X568950
X561450
X553950
X557700Y229600
X565200
X572700
X576450Y237100
X568950
X561450
X553950
X557700Y244600
X565200
X572700
X576450Y252100
X568950
X561450
X553950
X557700Y214600
X561450Y162100
X568950
X576450
X572700Y154600
X565200
X557700
X561450Y147100
X568950
X576450
X572700Y139600
X565200
X557700
X561450Y132100
X568950
X576450
X553950
Y147100
Y162100
X433950
X426450
X418950
X411450
X403950
X396450
X388950
X381450
X373950
X366450
X358950
X351450
X343950
X347700Y169600
X355200
X362700
X370200
X377700
X385200
X392700
X400200
X407700
X415200
X422700
X430200
X437700
X433950Y177100
X426450
X418950
X411450
X403950
X396450
X388950
X381450
X373950
X366450
X358950
X351450
X343950
X347700Y184600
X355200
X362700
X370200
X377700
X385200
X392700
X400200
X407700
Y154600
X415200
X422700
X430200
X437700
X400200
X392700
X385200
X377700
X370200
X362700
X355200
X347700
X340200
Y169600
Y184600
X343950Y192100
X351450
X358950
X366450
X373950
X381450
X385200Y199600
X377700
X370200
X362700
X355200
X347700
X340200
X317700Y214600
X310200
X302700
X295200
X287700
X291450Y222100
X298950
X306450
X313950
X317700Y229600
Y244600
X306001Y245200
X303201Y244500
X300801Y243200
X298401Y241000
X295601
X292801
Y255000
X295601
X298401
X300801Y252800
X303201Y251500
X306001Y250800
X307301Y248000
X317700Y259600
Y274600
X310200
X302700
X295200
X298950Y282100
X306450
X313950
X291450
Y267100
X287700Y229600
X283950Y222100
X358950Y252100
X366450
X373950
X381450
X388950
X396450
X403950
X411450
X418950
X426450
X433950
X437700Y259600
X430200
X422700
X415200
X407700
X400200
X392700
X385200
X377700
X370200
X362700
X366450Y267100
X373950
X381450
X388950
X396450
X403950
X411450
X418950
X426450
X433950
X437700Y244600
X430200
X422700
X415200
X407700
X400200
X392700
Y274600
X400200
X407700
X385200
X377700
X370200
X362700
X366450Y282100
X373950
X381450
X358950
Y267100
X270801Y255000
X268001
X265201
X262801Y252800
X260401Y251500
X257601Y250800
X256301Y248000
X257601Y245200
X260401Y244500
X262801Y243200
X265201Y241000
X268001
X270801
X272700Y229600
X280200
X276450Y222100
X268950
X261450
X253950
X246450
X250200Y214600
X257700
X265200
X272700
X280200
X242700
Y229600
X246450Y237100
X238950
Y252100
X227700Y244600
X216450Y252100
X208950
X201450
X205200Y259600
X212700
X220200
X223950Y267100
X231450
X216450
X208950
X201450
X197700Y259600
X182700
X178500Y260300
X177800Y257500
X175000Y256200
X172200Y257500
X171500Y260300
X170200Y262700
X168000Y265100
Y267900
Y270700
X167700Y259600
X152700
X145200
X137700
X130200
X133950Y267100
X141450
X148950
Y282100
X156450
X163950
X141450
X133950
Y252100
X141450
X148950
X152700Y229600
X160200
X167700
X171450Y222100
X163950
X156450
X148950
X141450
X133950
X137700Y229600
X145200
Y214600
X152700
X160200
X167700
Y199600
X160200
X152700
X145200
X137700
X130200
X133950Y192100
X141450
X148950
X156450
X163950
X171450
X167700Y184600
X160200
X152700
X145200
X137700
X130200
X133950Y177100
X141450
X148950
X156450
X163950
X171450
X167700Y169600
X160200
X152700
X145200
X137700
X130200
X133950Y162100
X141450
X148950
X156450
X160200Y154600
X152700
X145200
X137700
X130200
X133950Y147100
X141450
X148950
X152700Y139600
X145200
X137700
X130200
X133950Y132100
X141450
X216450
X223950
X231450
X238950
X246450
X253950
X257700Y139600
X265200
X261450Y147100
X253950
X246450
X238950
X231450
X223950
X216450
X220200Y154600
X227700
X235200
X242700
X250200
X257700
X265200
X250200Y139600
X242700
X235200
X227700
X220200
X212700
Y154600
X178950Y252100
X179800Y262700
X182000Y265100
Y267900
Y270700
X265200Y274600
X268950Y282100
X130200Y229600
Y214600
X137700
X122700
X115200
X107700
X100200
X92700
X96450Y222100
X103950
X111450
X118950
X126450
X122700Y229600
X115200
X107700
X100200
X92700
X85200
X88950Y237100
X96450
X103950
X111450
Y252100
X107700Y259600
X118950Y267100
X126450
Y282100
X118950
X111450
X103950
X96450
X88950
X81450
X73950
X66450
X21450
X17700Y244600
X10200
X13950Y237100
X21450
X17700Y229600
X10200
X13950Y222100
X21450
X17700Y214600
X10200
X13950Y207100
X21450
X17700Y199600
X10200
X13950Y192100
X21450
X28950
X36450
X43950
X51450
X58950
X66450
X62700Y184600
X55200
X47700
X40200
X32700
X25200
X17700
X10200
X13950Y177100
X21450
X28950
X36450
X43950
X51450
X58950
X66450
X62700Y169600
X55200
X47700
X40200
X32700
X25200
X17700
X10200
X13950Y162100
X21450
X28950
X36450
X43950
X51450
X47700Y154600
X40200
X32700
X25200
X17700
X10200
X13950Y147100
X21450
X28950
X36450
X43950
X47700Y139600
X40200
X32700
X25200
X17700
X10200
X13950Y132100
X21450
X28950
X36450
X6450
Y147100
Y162100
Y177100
Y192100
Y207100
Y222100
Y237100
Y252100
X85200Y244600
X92700
X100200
X122700
Y199600
X126450Y192100
X118950
X122700Y184600
X126450Y177100
X118950
X122700Y169600
X126450Y162100
X118950
X122700Y154600
X115200
X107700
X111450Y147100
X118950
X126450
X122700Y139600
X115200
X107700
X111450Y132100
X118950
X126450
X103950
Y147100
X88950Y222100
X92700Y289600
X100200
X107700
X115200
X122700
X126450Y297100
Y312100
X118950
X111450
X103950
X96450
X88950
X81450
X73950
X66450
X70200Y319600
X77700
X85200
X92700
X100200
X107700
X115200
X122700
Y349600
X115200
X107700
X100200
X92700
X85200
X77700
X70200
X62700
X55200
X47700
X40200
X32700
X25200
X17700
X10200
X13950Y357100
X21450
X17700Y364600
X10200
X13950Y372100
X21450
X17700Y379600
X10200
X13950Y387100
X21450
X17700Y394600
X10200
X13950Y402100
X21450
X17700Y409600
X10200
X6450Y417100
Y402100
Y387100
Y372100
Y357100
Y342100
X13950
X21450
X28950
X36450
X43950
X51450
X58950
X66450Y357100
X73950
X81450
X88950
X96450
X103950
X111450
X118950
X126450
X122700Y364600
X115200
X107700
X100200
X92700
X85200
X77700
X70200
X62700
X66450Y417100
X73950
X81450
X88950
X96450
X103950
X107700Y424600
X115200
X122700
X126450Y432100
X118950
X111450
X103950
X96450
X88950
X81450
X73950
X66450
X58950
X51450
X43950
X36450
X40200Y424600
X47700
X55200
X62700
X70200
X77700
X85200
X92700
X100200
X58950Y417100
X51450
X43950
X36450
X28950
X32700Y424600
X10200Y334600
X21450Y312100
X17700Y289600
X62700
X70200
X77700
X85200
X130200
X137700
X145200
X152700
X160200
X168000Y292700
Y295500
Y298300
X170200Y300700
X171500Y303100
X172200Y305900
X175000Y307200
X177800Y305900
X178500Y303100
X179800Y300700
X182000Y298300
Y295500
Y292700
X190200Y289600
X197700
X178950Y312100
X148950
X141450
X145200Y304600
X152700
X148950Y297100
X141450
X133950
X137700Y304600
X130200Y319600
Y349600
X137700
X141450Y357100
X133950
X137700Y364600
X130200
X167700
X171450Y372100
X178950
X186450
X193950
X201450
X208950
X216450
X212700Y364600
X205200
X197850Y359000
X195050
X192250
X189850Y356800
X187450Y355500
X184650Y354800
X183350Y352000
X184650Y349200
X187450Y348500
X189850Y347200
X192250Y345000
X195050
X197850
X219850
X222650
X225450
X227850Y347200
X230250Y348500
X233050Y349200
X234350Y352000
X233050Y354800
X230250Y355500
X227850Y356800
X225450Y359000
X222650
X219850
X231450Y372100
X238950
X242700Y364600
X246450Y357100
X250200Y349600
X246450Y342100
X235200Y319600
X261450Y372100
X276450
X276700Y375700
X273900Y376400
X272600Y379200
X273900Y382000
X276700Y382700
X279100Y384000
X281500Y386200
X276450Y387100
Y402100
X268950
X261450
X253950
X246450
X238950
X231450
X223950
X216450
X208950
X201450
X193950
X186450
X178950
X171450
X163950
X167700Y424600
X175200
X182700
X190200
X197700
X205200
X212700
X220200
X227700
X235200
X242700
X250200
X257700
X265200
X272700
X280200
X276450Y432100
X268950
X261450
X253950
X246450
X238950
X231450
X223950
X216450
X208950
X201450
X193950
X186450
X178950
X171450
X163950
X156450
X148950
X141450
X133950
X137700Y424600
X145200
X152700
X160200
X130200
X171450Y357100
X167700Y349600
X171450Y342100
X163950
X167700Y334600
X261450Y387100
X257700Y394600
X279100Y374400
X281500Y372200
X284300
X287100
Y386200
X284300
X283950Y402100
X291450
X306450
X313950
X321450
X328950
X336450
X332700Y394600
X336450Y387100
X332700Y379600
X323600Y379200
X322300Y376400
X319500Y375700
X317100Y374400
X314700Y372200
X311900
X309100
Y386200
X311900
X314700
X317100Y384000
X319500Y382700
X322300Y382000
X336450Y372100
X332700Y364600
X336450Y357100
X328950
X321450
X313950
X306450
X310200Y349600
X317700
X325200
X332700
X336450Y342100
X332700Y334600
X355200
X362700
X370200
X377700
X385200
X392700
X400200
X407700
X415200
X422700
X430200
X437700
X433950Y342100
X426450
X418950
X411450
X403950
X396450
X388950
X381450
X373950
X366450
X358950
X362700Y349600
X370200
X377700
X385200
X392700
X400200
X407700
X415200
X422700
X430200
X437700
X433950Y357100
X426450
X418950
X411450
X403950
X396450
X400200Y364600
X407700
X392700
X355200Y349600
X295200
X302700Y394600
Y424600
X310200
X317700
X325200
X332700
X340200
X347700
X355200
X362700
X370200
X377700
X385200
X392700
X400200
X407700
X415200
X422700
X430200
X437700
X433950Y432100
X426450
X418950
X411450
X403950
X396450
X388950
X381450
X373950
X366450
X358950
X351450
X343950
X336450
X328950
X321450
X313950
X306450
X298950
X291450
X283950
X287700Y424600
X295200
Y289600
X302700
X287700
X332700Y304600
X362700Y289600
X370200
X377700
X385200
X475200
X478950Y297100
X471450Y312100
X475200Y319600
X467700
X471450Y327100
X478950
X475200Y334600
X467700
X463950Y327100
X448950
X445200Y334600
X448950Y342100
X456450
X460200Y349600
X467700
X475200
X482700
X490200
X497700
X505200
X512700
X520200
X527700
X535200
X542700
X550200
X557700
X565200
X572700
X576450Y357100
X568950
X561450
X553950
X546450
X538950
X531450
X523950
X516450
X508950
X501450
X493950
X486450
X478950
X471450
X463950
X456450
X448950
X441450
X445200Y349600
X452700
X441450Y342100
X475200Y364600
X482700
X490200
X497700
X505200
X512700
X520200
X527700
X535200
X542700
X550200
X557700
X565200
X572700
X576450Y372100
X568950
X561450
X553950
X546450
X538950
X531450
X523950
X516450
X508950
X501450
X493950
X486450
X478950
X475200Y379600
X478950Y387100
X486450Y402100
X493950
X501450
X508950
X516450
X523950
X531450
X527700Y409600
X520200
X512700
X505200
X497700
X493950Y417100
X508950
X512700Y394600
X520200
X527700
X516450Y387100
X512700Y379600
X565200
X572700
X576450Y387100
X568950
X561450
X565200Y394600
X572700
X576450Y402100
X568950
X561450
X553950
X557700Y409600
X565200
X572700
X576450Y417100
X553950
X557700Y394600
X561450Y342100
X568950
X576450
X572700Y334600
X565200
X557700
X561450Y327100
X568950
X576450
X572700Y319600
X565200
X557700
X561450Y312100
X568950
X576450
X572700Y304600
X565200
X557700
X561450Y297100
X568950
X576450
X572700Y289600
X565200
X553950Y312100
Y327100
Y342100
X527700Y319600
X520200
X512700
X505200
X497700
X501450Y312100
X508950
X516450
X523950
X531450
X527700Y304600
X520200
X512700
X516450Y297100
X512700Y289600
X493950Y312100
X475200Y409600
X467700
X471450Y417100
X478950
X475200Y424600
X467700
X463950Y417100
X448950
X445200Y424600
X448950Y432100
X456450
X441450
T03
X248701Y298131
X252770Y298031
X258400Y306500
X260400
X262400
X270032Y311937
X272804Y310614
X275973Y310537
Y307754
X278102Y305504
X280086Y303104
X274086Y301309
X268844Y316731
X268610Y321393
X261501Y319881
X259129Y317504
X246954Y316731
X243285Y303604
T04
X393300Y20500
Y25500
Y30500
Y35500
Y40500
Y45500
Y50500
Y55500
Y60500
X398300
X403300
X408300
X413300
X418300
X423300
X428300
X433300
Y55500
X428300
X423300
X418300
X413300
X408300
X403300
X398300
Y50500
X403300
X408300
X413300
X418300
X423300
X428300
X433300
Y45500
X428300
X423300
X418300
X413300
X408300
X403300
X398300
Y40500
X403300
X408300
X413300
X418300
X423300
X428300
X433300
Y35500
X428300
X423300
X418300
X413300
X408300
X403300
X398300
Y30500
X403300
X408300
X413300
X418300
X423300
X428300
X433300
Y25500
X428300
X423300
X418300
X413300
X408300
X403300
X398300
Y20500
X403300
X408300
X413300
X418300
X423300
X428300
X433300
X478400Y20800
Y25800
Y30800
Y35800
Y40800
Y45800
Y50800
Y55800
Y60800
X483400
X488400
X493400
X498400
X503400
X508400
X513400
X518400
Y55800
X513400
X508400
X503400
X498400
X493400
X488400
X483400
Y50800
X488400
X493400
X498400
X503400
X508400
X513400
X518400
Y45800
X513400
X508400
X503400
X498400
X493400
X488400
X483400
Y40800
X488400
X493400
X498400
X503400
X508400
X513400
X518400
Y35800
X513400
X508400
X503400
X498400
X493400
X488400
X483400
Y30800
X488400
X493400
X498400
X503400
X508400
X513400
X518400
Y25800
X513400
X508400
X503400
X498400
X493400
X488400
X483400
Y20800
X488400
X493400
X498400
X503400
X508400
X513400
X518400
X225400Y293500
X221400
X217400
X213400
X209400
X205400
X216200Y318600
X220200
X224200
X228200
X309700Y337300
X313700
X317700
Y341300
X321700
X325700
Y337300
X321700
X313700Y341300
X309700
T05
X66300Y198647
Y208647
Y218647
Y228647
Y238647
Y248647
X11600Y256200
X20488Y300500
X19872Y330400
X61014Y331000
X68600Y338600
X61211Y300811
X69860Y409900
T06
X288100Y169300
Y176300
Y183300
Y190300
X295100
Y183300
X281100
Y190300
X274100
Y183300
X267100
Y190300
X260100
Y183300
X253100
Y190300
X246100
Y183300
Y176300
Y169300
X253100
Y176300
X260100
Y169300
X267100
Y176300
X274100
Y169300
X281100
Y176300
X228400Y174700
Y181700
X221400
X214400
Y174700
X221400
Y188700
Y195700
X214400
X207400
X200400
X193400
X186400
Y188700
X193400
X200400
X207400
X214400
X228400
Y195700
X228900Y219700
X221900
X214900
X207900
X200900
X193900
X186900
X186900Y226700
X193900
X200900
X207900
X214900
X221900
X228900
X107700Y193500
X107900Y186500
X93900
X93700Y193500
X79700
X79900Y186500
X358200Y361000
X365200
X372200
X379200
Y375000
X372200
X365200
X358200
Y389000
X365200
X372200
X379200
X365200Y403000
X358200
T07
X54700Y123575
X162400
X272428Y123575
X408290Y102400
X427890
X418090Y92600
Y182600
X427890Y192400
X408290
X418090Y272600
X427890Y282400
X408290
X272428Y143175
X262628Y133375
X152600Y133375
X162400Y143175
X54700
X44900Y133375
X418090Y362600
X427890Y372400
X408290
T08
X104031Y22075
Y35575
Y49575
Y64575
X211731
Y49575
Y35575
Y22075
X321760Y22075
Y35575
Y49575
Y64575
X486890Y151731
X501890
X515890
X529390
Y241731
X515890
X501890
X486890
X486890Y331731
X501890
X515890
X529390
Y422831
X515890
X501890
X486890
T09
X303801Y234000
Y262000
X259801
Y234000
X189000Y259700
X161000
Y303700
X189000
X186850Y338000
Y366000
X230850
Y338000
X276100Y365200
Y393200
X320100
Y365200
T10
X17100Y19300
X565600
X17100Y426900
X565600
M30
