G04*
G04 #@! TF.GenerationSoftware,Altium Limited,Altium Designer,21.2.2 (38)*
G04*
G04 Layer_Color=8388736*
%FSLAX25Y25*%
%MOIN*%
G70*
G04*
G04 #@! TF.SameCoordinates,52539C7D-95C9-4EB3-8E82-0DEE1B6B5610*
G04*
G04*
G04 #@! TF.FilePolarity,Negative*
G04*
G01*
G75*
%ADD31C,0.06000*%
%ADD32R,0.15500X0.08300*%
%ADD33R,0.09410X0.11333*%
%ADD34R,0.26000X0.44000*%
%ADD35R,0.44000X0.26000*%
%ADD36R,0.06706X0.14800*%
%ADD37R,0.14800X0.06706*%
%ADD38R,0.10400X0.04900*%
%ADD39R,0.01400X0.00900*%
%ADD40R,0.00900X0.01400*%
%ADD41R,0.01400X0.01400*%
%ADD42R,0.03000X0.01400*%
%ADD43R,0.01400X0.00900*%
%ADD44R,0.01600X0.01400*%
%ADD45R,0.01200X0.01400*%
%ADD46R,0.02769X0.03162*%
G04:AMPARAMS|DCode=47|XSize=27.69mil|YSize=31.62mil|CornerRadius=0mil|HoleSize=0mil|Usage=FLASHONLY|Rotation=45.000|XOffset=0mil|YOffset=0mil|HoleType=Round|Shape=Rectangle|*
%AMROTATEDRECTD47*
4,1,4,0.00139,-0.02097,-0.02097,0.00139,-0.00139,0.02097,0.02097,-0.00139,0.00139,-0.02097,0.0*
%
%ADD47ROTATEDRECTD47*%

%ADD48C,0.03937*%
%ADD49C,0.02800*%
%ADD50R,0.50800X0.50800*%
%ADD51R,0.23438X0.29934*%
%ADD52R,0.04540X0.13398*%
%ADD53R,0.29934X0.23438*%
%ADD54R,0.13398X0.04540*%
%ADD55R,0.03950X0.04343*%
%ADD56R,0.03556X0.04343*%
%ADD57R,0.04343X0.03950*%
%ADD58R,0.04343X0.03556*%
%ADD59C,0.13635*%
%ADD60C,0.09800*%
%ADD61C,0.07800*%
%ADD62R,0.07800X0.07800*%
%ADD63R,0.07800X0.07800*%
D31*
X285359Y248000D02*
X303801D01*
X281301Y251058D02*
Y256394D01*
X282301Y255980D02*
Y282731D01*
X282301Y251058D02*
Y255980D01*
Y251058D02*
X285359Y248000D01*
X278244D02*
X281301Y251058D01*
X259801Y248000D02*
X278244D01*
X281301Y256394D02*
Y282317D01*
X297600Y361928D02*
Y376200D01*
X298600Y361514D02*
Y376200D01*
X294600Y379200D02*
X297600Y376200D01*
X301600Y379200D02*
X320100D01*
X276100D02*
X294600D01*
X298600Y376200D02*
X301600Y379200D01*
X208350Y328116D02*
Y349105D01*
X209350Y328530D02*
Y349105D01*
X205455Y352000D02*
X208350Y349105D01*
X209350D02*
X212245Y352000D01*
X230850D01*
X186850D02*
X205455D01*
X175000Y285300D02*
Y303700D01*
X178100Y281200D02*
X181459D01*
X181459Y281200D02*
X185818D01*
X178100Y282200D02*
X181873D01*
X181873Y282200D02*
X185818D01*
X175000Y285300D02*
X178100Y282200D01*
X175000Y278100D02*
X178100Y281200D01*
X175000Y259700D02*
Y278100D01*
X185818Y282200D02*
X256473Y282200D01*
X185818Y281200D02*
X256888Y281200D01*
X260101Y285828D02*
Y303104D01*
X261101Y285413D02*
Y303104D01*
X256473Y282200D02*
X260101Y285828D01*
X256888Y281200D02*
X261101Y285413D01*
X266294Y297324D02*
X278894Y284724D01*
X281301Y282317D01*
X265294Y298324D02*
X266294Y297324D01*
X266294D01*
X262901Y300717D02*
X265294Y298324D01*
X262901Y300717D02*
Y303104D01*
X265294Y298324D02*
Y298324D01*
X280308Y284724D02*
Y284724D01*
X263901Y301132D02*
X266001Y299031D01*
X263901Y301132D02*
Y303104D01*
X266001Y299031D02*
X280308Y284724D01*
Y284724D02*
X282301Y282731D01*
X266001Y299031D02*
X266001D01*
X212349Y325531D02*
X233115D01*
X209500Y328380D02*
X212349Y325531D01*
X251643Y307004D02*
X253901D01*
X233115Y325531D02*
X251643Y307004D01*
X208500Y327965D02*
X211934Y324531D01*
X232701D01*
X251229Y306004D02*
X253901D01*
X232701Y324531D02*
X251229Y306004D01*
X269567Y350300D02*
X287429D01*
X298549Y361420D02*
X298578Y361491D01*
X287429Y350300D02*
X298549Y361420D01*
X251668Y332401D02*
X269567Y350300D01*
X251668Y314710D02*
X254601Y311777D01*
X251668Y314710D02*
Y332401D01*
X254601Y310004D02*
Y311777D01*
X250668Y314296D02*
X253601Y311363D01*
X250668Y314296D02*
Y332816D01*
X253601Y310004D02*
Y311363D01*
X269152Y351300D02*
X287015D01*
X297549Y361834D02*
X297578Y361906D01*
X287015Y351300D02*
X297549Y361834D01*
X250668Y332816D02*
X269152Y351300D01*
D32*
X260851Y306554D02*
D03*
D33*
X263606Y298851D02*
D03*
D34*
X320100Y379200D02*
D03*
X276100D02*
D03*
X303801Y248000D02*
D03*
X259801D02*
D03*
X186850Y352000D02*
D03*
X230850D02*
D03*
D35*
X175000Y303700D02*
D03*
Y259700D02*
D03*
D36*
X201500Y154731D02*
D03*
X191500D02*
D03*
Y171731D02*
D03*
X201500D02*
D03*
X93800Y154731D02*
D03*
X83800D02*
D03*
Y171731D02*
D03*
X93800D02*
D03*
X328328Y94731D02*
D03*
X338328D02*
D03*
Y111731D02*
D03*
X328328D02*
D03*
X219548Y93900D02*
D03*
X229548D02*
D03*
Y110900D02*
D03*
X219548D02*
D03*
X110767Y94731D02*
D03*
X120767D02*
D03*
Y111731D02*
D03*
X110767D02*
D03*
X311528Y171731D02*
D03*
X301528D02*
D03*
Y154731D02*
D03*
X311528D02*
D03*
D37*
X49200Y280555D02*
D03*
X32200D02*
D03*
X49200Y290555D02*
D03*
X32200D02*
D03*
X49200Y300555D02*
D03*
X32200D02*
D03*
X49200Y310555D02*
D03*
X32200D02*
D03*
X49200Y320555D02*
D03*
X32200D02*
D03*
X49200Y330555D02*
D03*
X32200D02*
D03*
X49200Y198647D02*
D03*
X32200D02*
D03*
X49200Y208647D02*
D03*
X32200D02*
D03*
X49200Y218647D02*
D03*
X32200D02*
D03*
X49200Y228647D02*
D03*
X32200D02*
D03*
X49200Y238647D02*
D03*
X32200D02*
D03*
X49200Y248647D02*
D03*
X32200D02*
D03*
X49200Y359555D02*
D03*
X32200D02*
D03*
X49200Y369555D02*
D03*
X32200D02*
D03*
X49200Y379555D02*
D03*
X32200D02*
D03*
X49200Y389555D02*
D03*
X32200D02*
D03*
X49200Y399555D02*
D03*
X32200D02*
D03*
X49200Y409555D02*
D03*
X32200D02*
D03*
X547400Y108400D02*
D03*
Y118400D02*
D03*
X530400D02*
D03*
Y108400D02*
D03*
X547400Y288400D02*
D03*
Y298400D02*
D03*
X530400D02*
D03*
Y288400D02*
D03*
X547400Y378400D02*
D03*
Y388400D02*
D03*
X530400D02*
D03*
Y378400D02*
D03*
X379734Y141500D02*
D03*
Y131500D02*
D03*
X396734D02*
D03*
Y141500D02*
D03*
X379734Y231500D02*
D03*
Y221500D02*
D03*
X396734D02*
D03*
Y231500D02*
D03*
X379734Y321500D02*
D03*
Y311500D02*
D03*
X396734D02*
D03*
Y321500D02*
D03*
X379734Y411500D02*
D03*
Y401500D02*
D03*
X396734D02*
D03*
Y411500D02*
D03*
X547400Y198400D02*
D03*
Y208400D02*
D03*
X530400D02*
D03*
Y198400D02*
D03*
D38*
X260101Y306404D02*
D03*
D39*
X253901Y308304D02*
D03*
Y307004D02*
D03*
Y306004D02*
D03*
Y304604D02*
D03*
X267301Y305504D02*
D03*
Y306504D02*
D03*
Y307504D02*
D03*
Y308504D02*
D03*
Y309604D02*
D03*
D40*
X254101Y303104D02*
D03*
X255101D02*
D03*
X256101D02*
D03*
X257101D02*
D03*
X260101D02*
D03*
X261101D02*
D03*
X262901D02*
D03*
X263901D02*
D03*
X266051Y309804D02*
D03*
X263101Y309704D02*
D03*
X260701D02*
D03*
X259701D02*
D03*
X258701D02*
D03*
X257701D02*
D03*
X254901Y310004D02*
D03*
X253901D02*
D03*
D41*
X258351Y303104D02*
D03*
D42*
X266801D02*
D03*
D43*
X266201Y304504D02*
D03*
D44*
X264601Y309704D02*
D03*
D45*
X261901D02*
D03*
X256501D02*
D03*
D46*
X262705Y196650D02*
D03*
Y200650D02*
D03*
X231301Y288631D02*
D03*
Y292631D02*
D03*
X301101Y296631D02*
D03*
Y292631D02*
D03*
X299101Y308531D02*
D03*
Y312531D02*
D03*
X214333Y308385D02*
D03*
Y312386D02*
D03*
X252705Y196650D02*
D03*
Y200650D02*
D03*
X236301Y288631D02*
D03*
Y292631D02*
D03*
X296101Y296631D02*
D03*
Y292631D02*
D03*
X294101Y308531D02*
D03*
Y312531D02*
D03*
X219333Y308385D02*
D03*
Y312386D02*
D03*
X257705Y196650D02*
D03*
Y200650D02*
D03*
X241301Y288631D02*
D03*
Y292631D02*
D03*
X291101Y296631D02*
D03*
Y292631D02*
D03*
X289101Y308531D02*
D03*
Y312531D02*
D03*
X224333Y308385D02*
D03*
Y312386D02*
D03*
X247705Y196650D02*
D03*
Y200650D02*
D03*
X246301Y288631D02*
D03*
Y292631D02*
D03*
X286101Y296631D02*
D03*
Y292631D02*
D03*
X284101Y308531D02*
D03*
Y312531D02*
D03*
X229333Y308385D02*
D03*
Y312386D02*
D03*
X242705Y196650D02*
D03*
Y200650D02*
D03*
X251301Y288631D02*
D03*
Y292631D02*
D03*
X281101Y296631D02*
D03*
Y292631D02*
D03*
X279101Y308531D02*
D03*
Y312531D02*
D03*
X234333Y308385D02*
D03*
Y312386D02*
D03*
X237635Y300029D02*
D03*
Y304029D02*
D03*
X232635D02*
D03*
Y300029D02*
D03*
X227635D02*
D03*
Y304029D02*
D03*
X222635D02*
D03*
Y300029D02*
D03*
X217635D02*
D03*
Y304029D02*
D03*
X273117Y323767D02*
D03*
Y319767D02*
D03*
X278117D02*
D03*
Y323767D02*
D03*
X283117D02*
D03*
Y319767D02*
D03*
X288117D02*
D03*
Y323767D02*
D03*
X293117D02*
D03*
Y319767D02*
D03*
X281420Y328427D02*
D03*
Y332427D02*
D03*
X286420D02*
D03*
Y328427D02*
D03*
X291420D02*
D03*
Y332427D02*
D03*
X296420D02*
D03*
Y328427D02*
D03*
X301420D02*
D03*
Y332427D02*
D03*
D47*
X276529Y340231D02*
D03*
X273701Y343059D02*
D03*
X273029Y336731D02*
D03*
X270201Y339559D02*
D03*
X269529Y333231D02*
D03*
X266701Y336059D02*
D03*
X266029Y329731D02*
D03*
X263201Y332559D02*
D03*
X262529Y326231D02*
D03*
X259701Y329059D02*
D03*
D48*
X319600Y374200D02*
D03*
X276600Y384200D02*
D03*
X303301Y243000D02*
D03*
X260301Y253000D02*
D03*
X187350Y357000D02*
D03*
X230350Y347000D02*
D03*
X180000Y303200D02*
D03*
X170000Y260200D02*
D03*
D49*
X320100Y379200D02*
D03*
X276100D02*
D03*
X303801Y248000D02*
D03*
X259801D02*
D03*
X186850Y352000D02*
D03*
X230850D02*
D03*
X175000Y303700D02*
D03*
Y259700D02*
D03*
D50*
X413300Y40700D02*
D03*
X498300D02*
D03*
D51*
X285228Y55376D02*
D03*
X175200Y55376D02*
D03*
X67500D02*
D03*
D52*
X271843Y94353D02*
D03*
X278535D02*
D03*
X285228D02*
D03*
X291921D02*
D03*
X298614D02*
D03*
X161814Y94353D02*
D03*
X168507D02*
D03*
X175200D02*
D03*
X181893D02*
D03*
X188586D02*
D03*
X54114D02*
D03*
X60807D02*
D03*
X67500D02*
D03*
X74193D02*
D03*
X80886D02*
D03*
D53*
X496089Y115200D02*
D03*
Y205200D02*
D03*
X496089Y295200D02*
D03*
Y385200D02*
D03*
D54*
X457112Y101814D02*
D03*
Y108507D02*
D03*
Y115200D02*
D03*
Y121893D02*
D03*
Y128586D02*
D03*
Y191814D02*
D03*
Y198507D02*
D03*
Y205200D02*
D03*
Y211893D02*
D03*
Y218586D02*
D03*
X457112Y281814D02*
D03*
Y288507D02*
D03*
Y295200D02*
D03*
Y301893D02*
D03*
Y308586D02*
D03*
Y371814D02*
D03*
Y378507D02*
D03*
Y385200D02*
D03*
Y391893D02*
D03*
Y398586D02*
D03*
D55*
X533479Y407200D02*
D03*
X538990D02*
D03*
Y227200D02*
D03*
X533479D02*
D03*
X538990Y317200D02*
D03*
X533479D02*
D03*
X420535Y226400D02*
D03*
X426046D02*
D03*
X426046Y316400D02*
D03*
X420535D02*
D03*
Y406400D02*
D03*
X426046D02*
D03*
X533479Y137200D02*
D03*
X538990D02*
D03*
X420535Y136400D02*
D03*
X426046D02*
D03*
X339072Y64700D02*
D03*
X344584D02*
D03*
X235720D02*
D03*
X230208D02*
D03*
X126856D02*
D03*
X121344D02*
D03*
D56*
X420338Y217400D02*
D03*
X426243D02*
D03*
X426243Y307400D02*
D03*
X420338D02*
D03*
Y397400D02*
D03*
X426243D02*
D03*
X420338Y127400D02*
D03*
X426243D02*
D03*
D57*
X196400Y130931D02*
D03*
Y125419D02*
D03*
X88700Y130931D02*
D03*
Y125419D02*
D03*
X306428Y130931D02*
D03*
Y125419D02*
D03*
D58*
X187400Y131128D02*
D03*
Y125222D02*
D03*
X297428Y125222D02*
D03*
Y131128D02*
D03*
X79700Y131128D02*
D03*
Y125222D02*
D03*
D59*
X565600Y19300D02*
D03*
Y426900D02*
D03*
X17100Y19300D02*
D03*
Y426900D02*
D03*
D60*
X320100Y393200D02*
D03*
Y365200D02*
D03*
X276100Y393200D02*
D03*
Y365200D02*
D03*
X303801Y262000D02*
D03*
Y234000D02*
D03*
X259801Y262000D02*
D03*
Y234000D02*
D03*
X186850Y338000D02*
D03*
Y366000D02*
D03*
X230850Y338000D02*
D03*
Y366000D02*
D03*
X161000Y303700D02*
D03*
X189000D02*
D03*
X161000Y259700D02*
D03*
X189000D02*
D03*
D61*
X272428Y123575D02*
D03*
X262628Y133375D02*
D03*
X162400Y123575D02*
D03*
X152600Y133375D02*
D03*
X427890Y102400D02*
D03*
X418090Y92600D02*
D03*
X427890Y192400D02*
D03*
X418090Y182600D02*
D03*
X427890Y282400D02*
D03*
X418090Y272600D02*
D03*
X427890Y372400D02*
D03*
X418090Y362600D02*
D03*
X54700Y123575D02*
D03*
X44900Y133375D02*
D03*
D62*
X272428Y143175D02*
D03*
X162400Y143175D02*
D03*
X54700D02*
D03*
D63*
X408290Y102400D02*
D03*
Y192400D02*
D03*
X408290Y282400D02*
D03*
Y372400D02*
D03*
M02*
